<svg width="33" height="32" viewBox="0 0 33 32" fill="none" xmlns="http://www.w3.org/2000/svg">
<g clip-path="url(#clip0_377_1678)">
<path fill-rule="evenodd" clip-rule="evenodd" d="M16.2788 11.0963L12.3334 12.4815L13.4515 15L17.4007 13.5797C18.1605 13.306 18.5301 12.5282 18.228 11.8473C18.078 11.5102 17.7947 11.2498 17.4251 11.108C17.0611 10.9694 16.6521 10.9628 16.2788 11.0963Z" fill="#F5C451"/>
<path fill-rule="evenodd" clip-rule="evenodd" d="M18.4662 16.1325L14.3334 17.6018L15.8606 21L16.1338 20.9046C16.141 20.903 16.1447 20.8982 16.1519 20.895C16.1591 20.8935 16.1664 20.8935 16.1736 20.8919L20.0007 19.5593C21.0936 19.1777 21.6129 18.1234 21.1822 17.1598C20.9796 16.705 20.5833 16.3472 20.0694 16.1516C19.5573 15.956 18.9855 15.9497 18.4662 16.1325Z" fill="#F5C451"/>
<path fill-rule="evenodd" clip-rule="evenodd" d="M21.6285 21.3507L21.8256 21.8509C22.0816 22.5011 21.7633 23.2337 21.1148 23.4897C20.9616 23.5503 20.805 23.5789 20.65 23.5789C20.1481 23.5789 19.6715 23.2758 19.4761 22.7789L19.3195 22.3832L18.373 22.7587L18.5262 23.1461C18.7822 23.7945 18.4656 24.5288 17.8172 24.7848C17.6639 24.8455 17.5073 24.8741 17.3506 24.8741C16.8487 24.8741 16.3738 24.5709 16.1767 24.0758L16.0235 23.6884L14.8277 24.1617C14.6744 24.2223 14.5178 24.2509 14.3628 24.2509C13.8593 24.2509 13.3843 23.9478 13.1873 23.4526C12.9666 22.8935 13.189 22.2888 13.6656 21.9638L10.2702 13.3676C9.70264 13.4552 9.13001 13.1638 8.90937 12.6063C8.65337 11.9579 8.97169 11.2253 9.62011 10.9676L10.4942 10.6223C10.5094 10.6156 10.5195 10.6021 10.5346 10.5971C10.5515 10.5903 10.5666 10.5937 10.5835 10.5869L10.8108 10.4977L10.6525 10.0985C10.3965 9.45011 10.7132 8.7141 11.3616 8.45811C12.0083 8.20211 12.7443 8.51705 13.002 9.16716L13.162 9.568L14.1136 9.19242L13.9502 8.7781C13.6959 8.12968 14.0159 7.39705 14.666 7.14274C15.3161 6.88674 16.0487 7.20674 16.3031 7.85853L16.5473 8.48168C17.1115 8.46147 17.6774 8.55411 18.213 8.78316C19.1662 9.19242 19.9005 9.95368 20.2812 10.9221C20.6012 11.7288 20.6146 12.5794 20.4007 13.3625C20.5725 13.4131 20.746 13.4552 20.9144 13.5276C22.0125 14.0025 22.858 14.8766 23.2993 15.9899C24.0791 17.9806 23.3313 20.2004 21.6285 21.3507ZM16.3334 0C7.51148 0 0.333374 7.17642 0.333374 16C0.333374 24.8219 7.51148 32 16.3334 32C25.157 32 32.3334 24.8219 32.3334 16C32.3334 7.17642 25.157 0 16.3334 0Z" fill="#F5C451"/>
</g>
<defs>
<clipPath id="clip0_377_1678">
<rect x="0.333374" width="32" height="32" rx="16" fill="white"/>
</clipPath>
</defs>
</svg>
