<svg width="33" height="32" viewBox="0 0 33 32" fill="none" xmlns="http://www.w3.org/2000/svg">
<g clip-path="url(#clip0_377_1682)">
<path fill-rule="evenodd" clip-rule="evenodd" d="M16.6621 18L20.6666 16.3769L16.6621 10L12.6666 16.3663L16.6621 18Z" fill="#D0E3F9"/>
<path fill-rule="evenodd" clip-rule="evenodd" d="M17.187 20.687C17.0202 20.7636 16.8443 20.8019 16.6666 20.8019C16.4871 20.8019 16.3112 20.7636 16.1426 20.685L14.6666 20L16.6684 23L18.6666 20.006L17.187 20.687Z" fill="#D0E3F9"/>
<path fill-rule="evenodd" clip-rule="evenodd" d="M23.2889 17.5276L17.6805 25.0897C17.4414 25.4114 17.0658 25.6 16.6649 25.6C16.2658 25.6 15.8885 25.4114 15.651 25.0897L10.0443 17.5276C9.99715 17.4636 9.96852 17.3928 9.93484 17.3238C9.91968 17.2901 9.89778 17.2632 9.88599 17.2295C9.8321 17.0914 9.80178 16.9482 9.8001 16.8017C9.79842 16.7714 9.80684 16.7427 9.80852 16.7124C9.81526 16.5928 9.83715 16.4749 9.87926 16.3587C9.88599 16.3352 9.88263 16.3116 9.89273 16.288C9.90284 16.2627 9.92473 16.2476 9.93652 16.2223C9.95505 16.1869 9.96178 16.1482 9.98368 16.1145L15.5904 6.9861C16.0468 6.23663 17.2847 6.23663 17.7412 6.9861L23.3496 16.1145C23.3833 16.1667 23.3984 16.2257 23.422 16.2829C23.4254 16.2931 23.4338 16.2981 23.4388 16.3082C23.4422 16.3166 23.4405 16.3251 23.4439 16.3352C23.4978 16.4783 23.5298 16.6248 23.5315 16.7747C23.5315 16.7865 23.5348 16.7966 23.5348 16.8084C23.5298 16.9499 23.5012 17.0897 23.4489 17.2244C23.427 17.2884 23.39 17.3406 23.3563 17.3996C23.3327 17.4417 23.3176 17.4888 23.2889 17.5276ZM16.6666 0C7.84473 0 0.666626 7.17811 0.666626 16C0.666626 24.8236 7.84473 32 16.6666 32C25.4902 32 32.6666 24.8236 32.6666 16C32.6666 7.17811 25.4902 0 16.6666 0Z" fill="#D0E3F9"/>
</g>
<defs>
<clipPath id="clip0_377_1682">
<rect x="0.666626" width="32" height="32" rx="16" fill="white"/>
</clipPath>
</defs>
</svg>
