<svg width="32" height="32" viewBox="0 0 32 32" fill="none" xmlns="http://www.w3.org/2000/svg">
<g clip-path="url(#clip0_377_1686)">
<path fill-rule="evenodd" clip-rule="evenodd" d="M20.9892 15H10L11.009 17H22L20.9892 15Z" fill="#17FAC4"/>
<path fill-rule="evenodd" clip-rule="evenodd" d="M21.0153 12L22 10H10.9829L10 12H21.0153Z" fill="#17FAC4"/>
<path fill-rule="evenodd" clip-rule="evenodd" d="M24.8522 18.4135C24.8387 18.5583 24.8152 18.6981 24.7579 18.8227C24.7512 18.8379 24.7545 18.8531 24.7478 18.8665L22.6341 23.3128C22.4253 23.7507 21.9806 24.032 21.4939 24.032H8.39074C7.95621 24.032 7.55368 23.8114 7.32126 23.4442C7.09053 23.0787 7.06358 22.6189 7.24884 22.2265L9.10989 18.3124L7.24884 14.2181C7.17474 14.0564 7.12758 13.8813 7.12758 13.6926C7.12758 13.6876 7.12926 13.6842 7.12926 13.6792C7.12926 13.6067 7.15958 13.5411 7.17137 13.4703C7.18989 13.3726 7.19832 13.2716 7.23874 13.184C7.24547 13.1672 7.24211 13.1486 7.24884 13.1335L9.36253 8.68547C9.57137 8.24589 10.016 7.96463 10.5044 7.96463H23.6076C24.0404 7.96463 24.4429 8.18695 24.6754 8.55411C24.9061 8.91958 24.9331 9.37937 24.7478 9.77179L22.8867 13.6876L24.7411 17.7667C24.8202 17.9318 24.8741 18.112 24.8741 18.3074C24.8741 18.3141 24.8691 18.3208 24.8691 18.3293C24.8691 18.3579 24.8539 18.3848 24.8522 18.4135ZM16 0C7.17642 0 0 7.17811 0 16C0 24.8219 7.17642 32 16 32C24.8219 32 32 24.8219 32 16C32 7.17811 24.8219 0 16 0Z" fill="#17FAC4"/>
<path fill-rule="evenodd" clip-rule="evenodd" d="M10.983 20L10 22H21.017L22 20H10.983Z" fill="#17FAC4"/>
</g>
<defs>
<clipPath id="clip0_377_1686">
<rect width="32" height="32" rx="16" fill="white"/>
</clipPath>
</defs>
</svg>
