<svg width="22" height="25" viewBox="0 0 22 25" fill="none" xmlns="http://www.w3.org/2000/svg">
<path d="M6.54262 0H22L19.4238 4.84144H3.96639L6.54262 0Z" fill="white"/>
<path d="M0 18.0026C0.444933 19.5629 1.30848 20.9898 2.50805 22.1469C3.70761 23.304 5.20306 24.1524 6.85136 24.6112C8.49965 25.07 10.2457 25.1237 11.9224 24.7672C13.5991 24.4107 15.1504 23.6559 16.4279 22.5751C17.7054 21.4942 18.6664 20.1234 19.219 18.5938C19.7716 17.0642 19.8973 15.427 19.584 13.8387C19.2707 12.2505 18.529 10.7643 17.4297 9.52236C16.3305 8.28043 14.9105 7.3243 13.3056 6.74542L11.4332 11.3286C12.2036 11.6064 12.8852 12.0654 13.4128 12.6615C13.9405 13.2576 14.2965 13.971 14.4469 14.7334C14.5973 15.4957 14.5369 16.2816 14.2717 17.0158C14.0065 17.75 13.5452 18.408 12.932 18.9268C12.3187 19.4456 11.5741 19.8079 10.7693 19.979C9.96448 20.1502 9.1264 20.1244 8.33522 19.9042C7.54404 19.684 6.82622 19.2767 6.25043 18.7213C5.67464 18.1659 5.26014 17.481 5.04657 16.732L0 18.0026Z" fill="white"/>
</svg>
