<svg width="168" height="35" viewBox="0 0 168 35" fill="none" xmlns="http://www.w3.org/2000/svg">
<path d="M8.92176 0H30L26.487 6.77802H5.40872L8.92176 0Z" fill="url(#paint0_linear_377_537)"/>
<path d="M0 25.2037C0.606727 27.3881 1.78429 29.3858 3.42006 31.0057C5.05583 32.6255 7.09508 33.8134 9.34276 34.4557C11.5904 35.098 13.9713 35.1732 16.2578 34.6741C18.5442 34.175 20.6596 33.1183 22.4017 31.6051C24.1438 30.0919 25.4542 28.1728 26.2078 26.0314C26.9613 23.8899 27.1326 21.5978 26.7054 19.3742C26.2782 17.1506 25.2668 15.07 23.7678 13.3313C22.2688 11.5926 20.3325 10.254 18.144 9.44359L15.5908 15.86C16.6413 16.249 17.5707 16.8915 18.2902 17.7261C19.0097 18.5607 19.4952 19.5594 19.7003 20.6267C19.9054 21.694 19.8231 22.7943 19.4614 23.8221C19.0997 24.85 18.4707 25.7712 17.6345 26.4975C16.7983 27.2239 15.7829 27.7311 14.6854 27.9706C13.5879 28.2102 12.4451 28.1741 11.3662 27.8658C10.2873 27.5575 9.30848 26.9873 8.52332 26.2098C7.73815 25.4323 7.17291 24.4734 6.88169 23.4249L0 25.2037Z" fill="url(#paint1_linear_377_537)"/>
<path d="M48.0352 27.8281C42.5938 27.8281 39.1484 23.877 39.1484 17.6289C39.1484 11.4355 42.6348 7.44336 48.0352 7.44336C51.6309 7.44336 54.5566 9.28906 55.7188 12.2285C55.8555 12.5703 55.9238 12.9121 55.9238 13.1992C55.9238 13.8828 55.4863 14.3203 54.8164 14.3203C54.2148 14.3203 53.791 13.9922 53.5176 13.2949C52.5879 10.9707 50.4688 9.71289 48.0352 9.71289C44.1797 9.71289 41.6777 12.8301 41.6777 17.6289C41.6777 22.4688 44.1523 25.5586 48.0488 25.5586C50.6191 25.5586 52.6426 24.4785 53.5723 22.2637C53.832 21.6621 54.1738 21.4023 54.7207 21.4023C55.377 21.4023 55.8418 21.8672 55.8418 22.5098C55.8418 22.9336 55.7324 23.3027 55.5137 23.7402C54.2148 26.3516 51.6445 27.8281 48.0352 27.8281ZM64.1002 27.7461C60.1627 27.7461 57.5103 24.916 57.5103 20.3906C57.5103 15.8516 60.1627 13.0352 64.1002 13.0352C68.024 13.0352 70.6763 15.8516 70.6763 20.3906C70.6763 24.916 68.024 27.7461 64.1002 27.7461ZM64.1002 25.6543C66.6158 25.6543 68.2564 23.7402 68.2564 20.3906C68.2564 17.041 66.6158 15.127 64.1002 15.127C61.5845 15.127 59.9302 17.041 59.9302 20.3906C59.9302 23.7402 61.5845 25.6543 64.1002 25.6543ZM73.712 27.7461C73.0148 27.7461 72.5226 27.2266 72.5226 26.4746V14.2383C72.5226 13.5273 72.9874 13.0352 73.6437 13.0352C74.2999 13.0352 74.7648 13.5273 74.7648 14.2383V15.5508H74.8195C75.6124 14.0195 77.13 13.0352 79.3312 13.0352C82.4484 13.0352 84.253 15.0449 84.253 18.2715V26.4746C84.253 27.2266 83.7609 27.7461 83.0636 27.7461C82.3663 27.7461 81.8741 27.2266 81.8741 26.4746V18.6953C81.8741 16.3984 80.7941 15.1406 78.6066 15.1406C76.3644 15.1406 74.9015 16.7266 74.9015 19.1328V26.4746C74.9015 27.2266 74.4093 27.7461 73.712 27.7461ZM92.6208 27.7461C88.6833 27.7461 86.0309 24.916 86.0309 20.3906C86.0309 15.8516 88.6833 13.0352 92.6208 13.0352C96.5446 13.0352 99.197 15.8516 99.197 20.3906C99.197 24.916 96.5446 27.7461 92.6208 27.7461ZM92.6208 25.6543C95.1364 25.6543 96.777 23.7402 96.777 20.3906C96.777 17.041 95.1364 15.127 92.6208 15.127C90.1052 15.127 88.4509 17.041 88.4509 20.3906C88.4509 23.7402 90.1052 25.6543 92.6208 25.6543ZM102.233 27.7461C101.508 27.7461 101.043 27.1992 101.043 26.4746V14.2383C101.043 13.5273 101.508 13.0352 102.164 13.0352C102.821 13.0352 103.285 13.5273 103.285 14.2383V15.5508H103.34C104.01 14.0469 105.459 13.0352 107.373 13.0352C109.315 13.0352 110.75 14.0195 111.365 15.7422H111.42C112.213 14.0469 113.881 13.0352 115.877 13.0352C118.694 13.0352 120.512 14.8672 120.512 17.6836V26.4746C120.512 27.1992 120.047 27.7461 119.322 27.7461C118.598 27.7461 118.133 27.1992 118.133 26.4746V18.2305C118.133 16.2891 117.053 15.1406 115.18 15.1406C113.293 15.1406 111.967 16.5352 111.967 18.4629V26.4746C111.967 27.1992 111.502 27.7461 110.778 27.7461C110.053 27.7461 109.588 27.1992 109.588 26.4746V17.9707C109.588 16.2617 108.44 15.1406 106.676 15.1406C104.789 15.1406 103.422 16.6172 103.422 18.5859V26.4746C103.422 27.1992 102.957 27.7461 102.233 27.7461ZM124.382 32.8184C123.233 32.8184 122.591 32.3945 122.591 31.6426C122.591 31.123 122.946 30.7676 123.548 30.7676C123.889 30.7676 123.985 30.7812 124.354 30.7812C125.257 30.7812 126.118 30.2344 126.679 28.5117L127.007 27.5137L122.112 14.7578C122.03 14.5254 121.989 14.3066 121.989 14.1289C121.989 13.4727 122.495 13.0352 123.179 13.0352C123.739 13.0352 124.095 13.2812 124.313 13.9102L128.237 25.1211H128.278L132.216 13.9102C132.434 13.2812 132.749 13.0352 133.337 13.0352C134.02 13.0352 134.499 13.4863 134.499 14.1289C134.499 14.3066 134.458 14.5254 134.376 14.7578L129.126 28.498C127.895 31.7656 126.733 32.8184 124.382 32.8184ZM136.003 27.6367C135.128 27.6367 134.445 26.9531 134.445 26.0781C134.445 25.2031 135.128 24.5195 136.003 24.5195C136.878 24.5195 137.562 25.2031 137.562 26.0781C137.562 26.9531 136.878 27.6367 136.003 27.6367ZM142.143 27.6914C141.391 27.6914 140.912 27.1992 140.912 26.4199V8.85156C140.912 8.07227 141.391 7.58008 142.143 7.58008C142.894 7.58008 143.373 8.07227 143.373 8.85156V26.4199C143.373 27.1992 142.894 27.6914 142.143 27.6914ZM152.165 27.7461C148.227 27.7461 145.575 24.916 145.575 20.3906C145.575 15.8516 148.227 13.0352 152.165 13.0352C156.088 13.0352 158.741 15.8516 158.741 20.3906C158.741 24.916 156.088 27.7461 152.165 27.7461ZM152.165 25.6543C154.68 25.6543 156.321 23.7402 156.321 20.3906C156.321 17.041 154.68 15.127 152.165 15.127C149.649 15.127 147.995 17.041 147.995 20.3906C147.995 23.7402 149.649 25.6543 152.165 25.6543Z" fill="white"/>
<defs>
<linearGradient id="paint0_linear_377_537" x1="36.4125" y1="-7.98125" x2="0.0783922" y2="34.5669" gradientUnits="userSpaceOnUse">
<stop stop-color="#EAFF6C"/>
<stop offset="0.36677" stop-color="#46FACF"/>
<stop offset="1" stop-color="#7C5BFF"/>
</linearGradient>
<linearGradient id="paint1_linear_377_537" x1="36.4125" y1="-7.98125" x2="0.0783922" y2="34.5669" gradientUnits="userSpaceOnUse">
<stop stop-color="#EAFF6C"/>
<stop offset="0.36677" stop-color="#46FACF"/>
<stop offset="1" stop-color="#7C5BFF"/>
</linearGradient>
</defs>
</svg>
