<svg width="20" height="20" viewBox="0 0 20 20" fill="none" xmlns="http://www.w3.org/2000/svg">
<path d="M6.35921 17.9727C9.558 19.457 13.4693 18.8845 16.1096 16.2354C19.4802 12.8533 19.4867 7.36378 16.1096 3.97522C12.739 0.59322 7.26233 0.59322 3.89079 3.97522C1.25147 6.62441 0.6799 10.549 2.1602 13.7586C2.34979 14.2327 2.49735 14.6151 2.49735 14.9853C2.49735 16.0197 1.50271 17.3008 2.1658 17.9661C2.8289 18.6315 4.10653 17.6335 5.13107 17.6278C5.49998 17.6278 5.88663 17.7815 6.35921 17.9727Z" stroke="white" stroke-width="1.44" stroke-linecap="round" stroke-linejoin="round"/>
<path d="M6.58563 11.5806C7.12359 12.8091 8.35735 13.6713 9.78996 13.6713C11.2227 13.6713 12.4555 12.8091 12.9934 11.5806" stroke="white" stroke-width="1.44" stroke-linecap="round" stroke-linejoin="round"/>
</svg>
